<svg xmlns="http://www.w3.org/2000/svg" viewBox="0 0 1024 1024">
  <path
    fill="#181819"
    fill-rule="evenodd"
    d="
      M 360 320
      H 664
      Q 708 320 708 364
      V 660
      Q 708 704 664 704
      H 406
      Q 362 704 362 660
      V 574
      C 362 530 344 506 316 494
      V 364
      Q 316 320 360 320
      Z

      M 338 344 H 374 Q 384 344 384 354 V 398 Q 384 408 374 408 H 338 Q 328 408 328 398 V 354 Q 328 344 338 344 Z
      M 398 344 H 434 Q 444 344 444 354 V 398 Q 444 408 434 408 H 398 Q 388 408 388 398 V 354 Q 388 344 398 344 Z
      M 458 344 H 494 Q 504 344 504 354 V 398 Q 504 408 494 408 H 458 Q 448 408 448 398 V 354 Q 448 344 458 344 Z
      M 518 344 H 554 Q 564 344 564 354 V 398 Q 564 408 554 408 H 518 Q 508 408 508 398 V 354 Q 508 344 518 344 Z
      M 578 344 H 614 Q 624 344 624 354 V 398 Q 624 408 614 408 H 578 Q 568 408 568 398 V 354 Q 568 344 578 344 Z
      M 638 344 H 674 Q 684 344 684 354 V 398 Q 684 408 674 408 H 638 Q 628 408 628 398 V 354 Q 628 344 638 344 Z

      M 380 616 H 414 Q 424 616 424 626 V 670 Q 424 680 414 680 H 380 Q 370 680 370 670 V 626 Q 370 616 380 616 Z
      M 433 616 H 467 Q 477 616 477 626 V 670 Q 477 680 467 680 H 433 Q 423 680 423 670 V 626 Q 423 616 433 616 Z
      M 486 616 H 520 Q 530 616 530 626 V 670 Q 530 680 520 680 H 486 Q 476 680 476 670 V 626 Q 476 616 486 616 Z
      M 539 616 H 573 Q 583 616 583 626 V 670 Q 583 680 573 680 H 539 Q 529 680 529 670 V 626 Q 529 616 539 616 Z
      M 592 616 H 626 Q 636 616 636 626 V 670 Q 636 680 626 680 H 592 Q 582 680 582 670 V 626 Q 582 616 592 616 Z
      M 645 616 H 679 Q 689 616 689 626 V 670 Q 689 680 679 680 H 645 Q 635 680 635 670 V 626 Q 635 616 645 616 Z
    "
  />
</svg>
